<?xml version="1.0" encoding="UTF-8"?>
<svg xmlns="http://www.w3.org/2000/svg" width="600" height="400" viewBox="0 0 600 400">
<path d="M 5,5 H 595 V 395 H 5 Z" style="fill:#ffffff;stroke:none"/>
<g style="fill:#000000;stroke:#000000;stroke-width:2.3;stroke-linecap:round;stroke-linejoin:miter;stroke-miterlimit:4">
				<path d="m 331.2321,293.29708 h -63.74012 l 31.87006,-93.30465 -31.87006,-93.28951 H 331.2321 L 299.36204,200 Z"/>
				<path d="m 350.3,169.9 c 18.1,-10.8 43.2,13.5 43.2,30.1 0,16.6 -25,41 -43.2,30.1 L 249.7,169.9 c -18.1,-10.8 -43.2,13.5 -43.2,30.1 0,16.6 25,41 43.2,30.1 z"/>
			</g>
<g style="fill:none;stroke:#000000;stroke-width:10;stroke-linecap:round;stroke-linejoin:miter;stroke-miterlimit:4">
				<path d="M 239.57574,55.11873 H 361.43195"/>
				<path d="m 206.89204,86.79476 c 17.49418,0 31.67602,-14.18184 31.67602,-31.67603 0,-17.49418 -14.18184,-31.67602 -31.67602,-31.67602"/>
				<path d="m 393.10797,86.79476 c -17.49419,0 -31.67602,-14.18184 -31.67602,-31.67603 0,-17.49418 14.18183,-31.67602 31.67602,-31.67602"/>
			</g>
<path d="M 5,5 H 595 V 395 H 5 Z" style="fill:none;stroke:#0000ff;stroke-width:12;stroke-linejoin:miter;stroke-miterlimit:4"/>
</svg>
