<?xml version="1.0" encoding="UTF-8"?>
<svg xmlns="http://www.w3.org/2000/svg" width="600" height="400" viewBox="0 0 600 400">
<path d="M 5,5 H 595 V 395 H 5 Z" style="fill:#ffffff;stroke:none"/>
<path d="m 5,5 590,390 m 0,-390 -590,390" style="fill:none;stroke:#000000;stroke-width:10;stroke-linecap:butt"/>
<path d="m 4,231 c 36,0 38,-62 74,-62 36,0 38,62 74,62 36,0 38,-62 74,-62 36,0 38,62 74,62 36,0 38,-62 74,-62 36,0 38,62 74,62 36,0 38,-62 74,-62 36,0 38,62 74,62" style="fill:none;stroke:#000000;stroke-width:10;stroke-linecap:butt"/>
<path d="M 5,5 H 595 V 395 H 5 Z" style="fill:none;stroke:#0000ff;stroke-width:12;stroke-linejoin:miter;stroke-miterlimit:4"/>
</svg>
