<?xml version="1.0" encoding="UTF-8"?>
<svg xmlns="http://www.w3.org/2000/svg" width="600" height="400" viewBox="0 0 600 400">
<g transform="translate(200,200)">
			<path d="M 5,5 H 595 V 395 H 5 Z" style="fill:#ffffff;stroke:none"/>
			<path d="m 215,107.5 a 92.5,92.5 0 1 0 0,185 h 170 a 92.5,92.5 0 1 0 0,-185 z" style="fill:none;stroke:#000000;stroke-width:10"/>
			<path d="M 5,5 H 595 V 395 H 5 Z" style="fill:none;stroke:#0000ff;stroke-width:12;stroke-linejoin:miter;stroke-miterlimit:4"/>
			<switch>
				<text systemLanguage="en" style="font-size:100px;text-align:center;text-anchor:middle" x="300" y="500">
					<tspan x="300" dy="0">armour</tspan>
				</text>
				<text systemLanguage="fr" style="font-size:100px;text-align:center;text-anchor:middle" x="300" y="500">
					<tspan x="300" dy="0">blindée</tspan>
				</text>
				<text systemLanguage="ja" style="font-size:100px;text-align:center;text-anchor:middle;font-family:TakaoGothic" x="300" y="500">
					<tspan x="300" dy="0">機甲部隊</tspan>
				</text>
				<text style="font-size:100px;text-align:center;text-anchor:middle" x="300" y="500">
					<tspan x="300" dy="0">armour</tspan>
				</text>
			</switch>
		</g>
<g transform="translate(1100,200)">
			<path d="M 5,5 H 595 V 395 H 5 Z" style="fill:#ffffff;stroke:none"/>
			<path d="m 215,107.5 a 92.5,92.5 0 1 0 0,185 h 170 a 92.5,92.5 0 1 0 0,-185 z" style="fill:none;stroke:#000000;stroke-width:10"/>
			<text style="font-size:100px;text-align:center;text-anchor:middle;fill:#000000;stroke:none" y="380" x="300">L</text>
			<path d="M 5,5 H 595 V 395 H 5 Z" style="fill:none;stroke:#0000ff;stroke-width:12;stroke-linejoin:miter;stroke-miterlimit:4"/>
			<switch>
				<text systemLanguage="en" style="font-size:100px;text-align:center;text-anchor:middle" x="300" y="500">
					<tspan x="300" dy="0">light</tspan>
					<tspan x="300" dy="99">armour</tspan>
				</text>
				<text systemLanguage="fr" style="font-size:100px;text-align:center;text-anchor:middle" x="300" y="500">
					<tspan x="300" dy="0">blindée</tspan>
					<tspan x="300" dy="99">légère</tspan>
				</text>
				<text systemLanguage="ja" style="font-size:100px;text-align:center;text-anchor:middle;font-family:TakaoGothic" x="300" y="500">
					<tspan x="300" dy="0">軽機甲部隊</tspan>
				</text>
				<text style="font-size:100px;text-align:center;text-anchor:middle" x="300" y="500">
					<tspan x="300" dy="0">light</tspan>
					<tspan x="300" dy="99">armour</tspan>
				</text>
			</switch>
		</g>
<g transform="translate(2000,200)">
			<path d="M 5,5 H 595 V 395 H 5 Z" style="fill:#ffffff;stroke:none"/>
			<path d="m 215,107.5 a 92.5,92.5 0 1 0 0,185 h 170 a 92.5,92.5 0 1 0 0,-185 z" style="fill:none;stroke:#000000;stroke-width:10"/>
			<text style="font-size:100px;text-align:center;text-anchor:middle;fill:#000000;stroke:none" y="380" x="300">H</text>
			<path d="M 5,5 H 595 V 395 H 5 Z" style="fill:none;stroke:#0000ff;stroke-width:12;stroke-linejoin:miter;stroke-miterlimit:4"/>
			<switch>
				<text systemLanguage="en" style="font-size:100px;text-align:center;text-anchor:middle" x="300" y="500">
					<tspan x="300" dy="0">heavy</tspan>
					<tspan x="300" dy="99">armour</tspan>
				</text>
				<text systemLanguage="fr" style="font-size:100px;text-align:center;text-anchor:middle" x="300" y="500">
					<tspan x="300" dy="0">blindée</tspan>
					<tspan x="300" dy="99">lourd</tspan>
				</text>
				<text systemLanguage="ja" style="font-size:100px;text-align:center;text-anchor:middle;font-family:TakaoGothic" x="300" y="500">
					<tspan x="300" dy="0">重機甲部隊</tspan>
				</text>
				<text style="font-size:100px;text-align:center;text-anchor:middle" x="300" y="500">
					<tspan x="300" dy="0">heavy</tspan>
					<tspan x="300" dy="99">armour</tspan>
				</text>
			</switch>
		</g>
<g transform="translate(2900,200)">
			<path d="M 5,5 H 595 V 395 H 5 Z" style="fill:#ffffff;stroke:none"/>
			<g style="fill:none;stroke:#000000;stroke-width:10">
				<path d="m 215,107.5 a 92.5,92.5 0 1 0 0,185 h 170 a 92.5,92.5 0 1 0 0,-185 z"/>
				<path d="m 185,340 a 31.5,31.5 0 1 1 63,0 31.5,31.5 0 1 1 -63,0 z m 83.5,0 a 31.5,31.5 0 1 1 63,0 31.5,31.5 0 1 1 -63,0 z m 83.5,0 a 31.5,31.5 0 1 1 63,0 31.5,31.5 0 1 1 -63,0 z"/>
			</g>
			<path d="M 5,5 H 595 V 395 H 5 Z" style="fill:none;stroke:#0000ff;stroke-width:12;stroke-linejoin:miter;stroke-miterlimit:4"/>
			<switch>
				<text systemLanguage="en" style="font-size:100px;text-align:center;text-anchor:middle" x="300" y="500">
					<tspan x="300" dy="0">armour</tspan>
					<tspan x="300" dy="99">(wheeled)</tspan>
				</text>
				<text systemLanguage="fr" style="font-size:100px;text-align:center;text-anchor:middle" x="300" y="500">
					<tspan x="300" dy="0">blindée</tspan>
					<tspan x="300" dy="99">(à roues)</tspan>
				</text>
				<text systemLanguage="ja" style="font-size:100px;text-align:center;text-anchor:middle;font-family:TakaoGothic" x="300" y="500">
					<tspan x="300" dy="0">機甲部隊</tspan>
					<tspan x="300" dy="99">(装輪式)</tspan>
				</text>
				<text style="font-size:100px;text-align:center;text-anchor:middle" x="300" y="500">
					<tspan x="300" dy="0">armour</tspan>
					<tspan x="300" dy="99">(wheeled)</tspan>
				</text>
			</switch>
		</g>
<g transform="translate(3800,200)">
			<path d="M 5,5 H 595 V 395 H 5 Z" style="fill:#ffffff;stroke:none"/>
			<path d="m 215,107.5 a 92.5,92.5 0 1 0 0,185 h 170 a 92.5,92.5 0 1 0 0,-185 z" style="fill:none;stroke:#000000;stroke-width:10"/>
			<path d="M 595,5 5,395" style="fill:none;stroke:#000000;stroke-width:10;stroke-linecap:butt"/>
			<path d="M 5,5 H 595 V 395 H 5 Z" style="fill:none;stroke:#0000ff;stroke-width:12;stroke-linejoin:miter;stroke-miterlimit:4"/>
			<switch>
				<text systemLanguage="en" style="font-size:100px;text-align:center;text-anchor:middle" x="300" y="500">
					<tspan x="300" dy="0">armoured</tspan>
					<tspan x="300" dy="99">reconnaissance</tspan>
				</text>
				<text systemLanguage="fr" style="font-size:100px;text-align:center;text-anchor:middle" x="300" y="500">
					<tspan x="300" dy="0">reconnaissance</tspan>
					<tspan x="300" dy="99">blindée</tspan>
				</text>
				<text systemLanguage="ja" style="font-size:100px;text-align:center;text-anchor:middle;font-family:TakaoGothic" x="300" y="500">
					<tspan x="300" dy="0">機甲</tspan>
					<tspan x="300" dy="99">偵察部隊</tspan>
				</text>
				<text style="font-size:100px;text-align:center;text-anchor:middle" x="300" y="500">
					<tspan x="300" dy="0">armoured</tspan>
					<tspan x="300" dy="99">reconnaissance</tspan>
				</text>
			</switch>
		</g>
<g transform="translate(4700,200)">
			<path d="M 5,5 H 595 V 395 H 5 Z" style="fill:#ffffff;stroke:none"/>
			<g style="fill:none;stroke:#000000;stroke-width:10">
				<path d="m 215,107.5 a 92.5,92.5 0 1 0 0,185 h 170 a 92.5,92.5 0 1 0 0,-185 z"/>
				<path d="m 185,340 a 31.5,31.5 0 1 1 63,0 31.5,31.5 0 1 1 -63,0 z m 83.5,0 a 31.5,31.5 0 1 1 63,0 31.5,31.5 0 1 1 -63,0 z m 83.5,0 a 31.5,31.5 0 1 1 63,0 31.5,31.5 0 1 1 -63,0 z"/>
			</g>
			<path d="M 595,5 5,395" style="fill:none;stroke:#000000;stroke-width:10;stroke-linecap:butt"/>
			<path d="M 5,5 H 595 V 395 H 5 Z" style="fill:none;stroke:#0000ff;stroke-width:12;stroke-linejoin:miter;stroke-miterlimit:4"/>
			<switch>
				<text systemLanguage="en" style="font-size:100px;text-align:center;text-anchor:middle" x="300" y="500">
					<tspan x="300" dy="0">armoured</tspan>
					<tspan x="300" dy="99">reconnaissance</tspan>
					<tspan x="300" dy="99">(wheeled)</tspan>
				</text>
				<text systemLanguage="fr" style="font-size:100px;text-align:center;text-anchor:middle" x="300" y="500">
					<tspan x="300" dy="0">reconnaissance</tspan>
					<tspan x="300" dy="99">blindée</tspan>
					<tspan x="300" dy="99">(à roues)</tspan>
				</text>
				<text systemLanguage="ja" style="font-size:100px;text-align:center;text-anchor:middle;font-family:TakaoGothic" x="300" y="500">
					<tspan x="300" dy="0">機甲</tspan>
					<tspan x="300" dy="99">偵察部隊</tspan>
					<tspan x="300" dy="99">(装輪式)</tspan>
				</text>
				<text style="font-size:100px;text-align:center;text-anchor:middle" x="300" y="500">
					<tspan x="300" dy="0">armoured</tspan>
					<tspan x="300" dy="99">reconnaissance</tspan>
					<tspan x="300" dy="99">(wheeled)</tspan>
				</text>
			</switch>
		</g>
<g transform="translate(5600,200)">
			<path d="M 5,5 H 595 V 395 H 5 Z" style="fill:#ffffff;stroke:none"/>
			<path d="M 300,5 V 395" style="fill:none;stroke:#000000;stroke-width:10;stroke-linecap:butt"/>
			<path d="M 595,5 5,395" style="fill:none;stroke:#000000;stroke-width:10;stroke-linecap:butt"/>
			<path d="M 5,5 H 595 V 395 H 5 Z" style="fill:none;stroke:#0000ff;stroke-width:12;stroke-linejoin:miter;stroke-miterlimit:4"/>
			<switch>
				<text systemLanguage="en" style="font-size:100px;text-align:center;text-anchor:middle" x="300" y="500">
					<tspan x="300" dy="0">motorized</tspan>
					<tspan x="300" dy="99">reconnaissance</tspan>
				</text>
				<text systemLanguage="fr" style="font-size:100px;text-align:center;text-anchor:middle" x="300" y="500">
					<tspan x="300" dy="0">reconnaissance</tspan>
					<tspan x="300" dy="99">motorisée</tspan>
				</text>
				<text systemLanguage="ja" style="font-size:100px;text-align:center;text-anchor:middle;font-family:TakaoGothic" x="300" y="500">
					<tspan x="300" dy="0">自動車化</tspan>
					<tspan x="300" dy="99">偵察部隊</tspan>
				</text>
				<text style="font-size:100px;text-align:center;text-anchor:middle" x="300" y="500">
					<tspan x="300" dy="0">motorized</tspan>
					<tspan x="300" dy="99">reconnaissance</tspan>
				</text>
			</switch>
		</g>
<g transform="translate(6500,200)">
			<path d="M 5,5 H 595 V 395 H 5 Z" style="fill:#ffffff;stroke:none"/>
			<g style="fill:none;stroke:#000000;stroke-width:10">
				<path d="m 215,107.5 a 92.5,92.5 0 1 0 0,185 h 170 a 92.5,92.5 0 1 0 0,-185 z"/>
				<path d="m 185,340 a 31.5,31.5 0 1 1 63,0 31.5,31.5 0 1 1 -63,0 z m 83.5,0 a 31.5,31.5 0 1 1 63,0 31.5,31.5 0 1 1 -63,0 z m 83.5,0 a 31.5,31.5 0 1 1 63,0 31.5,31.5 0 1 1 -63,0 z"/>
			</g>
			<path d="M 5,395 300,11 595,395" style="fill:none;stroke:#000000;stroke-width:10;stroke-linecap:butt;stroke-linejoin:miter;stroke-miterlimit:4"/>
			<path d="M 95,5 V 395" style="fill:none;stroke:#000000;stroke-width:10;stroke-linecap:butt"/>
			<path d="M 5,5 H 595 V 395 H 5 Z" style="fill:none;stroke:#0000ff;stroke-width:12;stroke-linejoin:miter;stroke-miterlimit:4"/>
			<switch>
				<text systemLanguage="en" style="font-size:100px;text-align:center;text-anchor:middle" x="300" y="500">
					<tspan x="300" dy="0">tank</tspan>
					<tspan x="300" dy="99">destroyers</tspan>
					<tspan x="300" dy="99">(wheeled)</tspan>
				</text>
				<text systemLanguage="fr" style="font-size:100px;text-align:center;text-anchor:middle" x="300" y="500">
					<tspan x="300" dy="0">Chasseurs</tspan>
					<tspan x="300" dy="99">de chars</tspan>
					<tspan x="300" dy="99">(à roues)</tspan>
				</text>
				<text systemLanguage="ja" style="font-size:100px;text-align:center;text-anchor:middle;font-family:TakaoGothic" x="300" y="500">
					<tspan x="300" dy="0">駆逐</tspan>
					<tspan x="300" dy="99">戦車部隊</tspan>
					<tspan x="300" dy="99">(装輪式)</tspan>
				</text>
				<text style="font-size:100px;text-align:center;text-anchor:middle" x="300" y="500">
					<tspan x="300" dy="0">tank</tspan>
					<tspan x="300" dy="99">destroyers</tspan>
					<tspan x="300" dy="99">(wheeled)</tspan>
				</text>
			</switch>
		</g>
<g transform="translate(7400,200)">
			<path d="M 5,5 H 595 V 395 H 5 Z" style="fill:#ffffff;stroke:none"/>
			<path d="m 215,107.5 a 92.5,92.5 0 1 0 0,185 h 170 a 92.5,92.5 0 1 0 0,-185 z" style="fill:none;stroke:#000000;stroke-width:10"/>
			<text style="font-size:100px;text-align:center;text-anchor:middle;fill:#000000;stroke:none" y="93" x="300">ASLT</text>
			<path d="M 5,5 H 595 V 395 H 5 Z" style="fill:none;stroke:#0000ff;stroke-width:12;stroke-linejoin:miter;stroke-miterlimit:4"/>
			<switch>
				<text systemLanguage="en" style="font-size:100px;text-align:center;text-anchor:middle" x="300" y="500">
					<tspan x="300" dy="0">armoured</tspan>
					<tspan x="300" dy="99">assault carriers</tspan>
					<tspan x="300" dy="99">(tracked)</tspan>
				</text>
				<text systemLanguage="fr" style="font-size:100px;text-align:center;text-anchor:middle" x="300" y="500">
					<tspan x="300" dy="0">transporteur</tspan>
					<tspan x="300" dy="99">blindé</tspan>
					<tspan x="300" dy="99">d'assaut</tspan>
					<tspan x="300" dy="99">(chenillée)</tspan>
				</text>
				<text systemLanguage="ja" style="font-size:100px;text-align:center;text-anchor:middle;font-family:TakaoGothic" x="300" y="500">
					<tspan x="300" dy="0">装甲</tspan>
					<tspan x="300" dy="99">兵員輸送部隊</tspan>
					<tspan x="300" dy="99">(装軌式)</tspan>
				</text>
				<text style="font-size:100px;text-align:center;text-anchor:middle" x="300" y="500">
					<tspan x="300" dy="0">armoured</tspan>
					<tspan x="300" dy="99">assault carriers</tspan>
					<tspan x="300" dy="99">(tracked)</tspan>
				</text>
			</switch>
		</g>
<g transform="translate(8300,200)">
			<path d="M 5,5 H 595 V 395 H 5 Z" style="fill:#ffffff;stroke:none"/>
			<path d="m 215,107.5 a 92.5,92.5 0 1 0 0,185 h 170 a 92.5,92.5 0 1 0 0,-185 z" style="fill:none;stroke:#000000;stroke-width:10"/>
			<text style="font-size:100px;text-align:center;text-anchor:middle;fill:#000000;stroke:none" y="93" x="300">ASLT</text>
			<path d="m 4,231 c 36,0 38,-62 74,-62 36,0 38,62 74,62 36,0 38,-62 74,-62 36,0 38,62 74,62 36,0 38,-62 74,-62 36,0 38,62 74,62 36,0 38,-62 74,-62 36,0 38,62 74,62" style="fill:none;stroke:#000000;stroke-width:10;stroke-linecap:butt"/>
			<path d="M 5,5 H 595 V 395 H 5 Z" style="fill:none;stroke:#0000ff;stroke-width:12;stroke-linejoin:miter;stroke-miterlimit:4"/>
			<switch>
				<text systemLanguage="en" style="font-size:100px;text-align:center;text-anchor:middle" x="300" y="500">
					<tspan x="300" dy="0">amphibious</tspan>
					<tspan x="300" dy="99">armoured</tspan>
					<tspan x="300" dy="99">assault carriers</tspan>
					<tspan x="300" dy="99">(tracked)</tspan>
				</text>
				<text systemLanguage="fr" style="font-size:100px;text-align:center;text-anchor:middle" x="300" y="500">
					<tspan x="300" dy="0">transporteur</tspan>
					<tspan x="300" dy="99">blindé</tspan>
					<tspan x="300" dy="99">d'assaut amphibie</tspan>
					<tspan x="300" dy="99">(chenillée)</tspan>
				</text>
				<text systemLanguage="ja" style="font-size:100px;text-align:center;text-anchor:middle;font-family:TakaoGothic" x="300" y="500">
					<tspan x="300" dy="0">水陸両用</tspan>
					<tspan x="300" dy="99">装甲</tspan>
					<tspan x="300" dy="99">兵員輸送部隊</tspan>
					<tspan x="300" dy="99">(装軌式)</tspan>
				</text>
				<text style="font-size:100px;text-align:center;text-anchor:middle" x="300" y="500">
					<tspan x="300" dy="0">amphibious</tspan>
					<tspan x="300" dy="99">armoured</tspan>
					<tspan x="300" dy="99">assault carriers</tspan>
					<tspan x="300" dy="99">(tracked)</tspan>
				</text>
			</switch>
		</g>
<g transform="translate(9200,200)">
			<path d="M 5,5 H 595 V 395 H 5 Z" style="fill:#ffffff;stroke:none"/>
			<g style="fill:none;stroke:#000000;stroke-width:10">
				<path d="m 215,107.5 a 92.5,92.5 0 1 0 0,185 h 170 a 92.5,92.5 0 1 0 0,-185 z"/>
				<path d="m 185,340 a 31.5,31.5 0 1 1 63,0 31.5,31.5 0 1 1 -63,0 z m 83.5,0 a 31.5,31.5 0 1 1 63,0 31.5,31.5 0 1 1 -63,0 z m 83.5,0 a 31.5,31.5 0 1 1 63,0 31.5,31.5 0 1 1 -63,0 z"/>
			</g>
			<text style="font-size:100px;text-align:center;text-anchor:middle;fill:#000000;stroke:none" y="93" x="300">ASLT</text>
			<path d="m 4,231 c 36,0 38,-62 74,-62 36,0 38,62 74,62 36,0 38,-62 74,-62 36,0 38,62 74,62 36,0 38,-62 74,-62 36,0 38,62 74,62 36,0 38,-62 74,-62 36,0 38,62 74,62" style="fill:none;stroke:#000000;stroke-width:10;stroke-linecap:butt"/>
			<path d="M 5,5 H 595 V 395 H 5 Z" style="fill:none;stroke:#0000ff;stroke-width:12;stroke-linejoin:miter;stroke-miterlimit:4"/>
			<switch>
				<text systemLanguage="en" style="font-size:100px;text-align:center;text-anchor:middle" x="300" y="500">
					<tspan x="300" dy="0">amphibious</tspan>
					<tspan x="300" dy="99">armoured</tspan>
					<tspan x="300" dy="99">assault carriers</tspan>
					<tspan x="300" dy="99">(wheeled)</tspan>
				</text>
				<text systemLanguage="fr" style="font-size:100px;text-align:center;text-anchor:middle" x="300" y="500">
					<tspan x="300" dy="0">transporteur</tspan>
					<tspan x="300" dy="99">blindé d'assaut</tspan>
					<tspan x="300" dy="99">amphibie</tspan>
					<tspan x="300" dy="99">(à roues)</tspan>
				</text>
				<text systemLanguage="ja" style="font-size:100px;text-align:center;text-anchor:middle;font-family:TakaoGothic" x="300" y="500">
					<tspan x="300" dy="0">水陸両用</tspan>
					<tspan x="300" dy="99">装甲</tspan>
					<tspan x="300" dy="99">兵員輸送部隊</tspan>
					<tspan x="300" dy="99">(装輪式)</tspan>
				</text>
				<text style="font-size:100px;text-align:center;text-anchor:middle" x="300" y="500">
					<tspan x="300" dy="0">amphibious</tspan>
					<tspan x="300" dy="99">armoured</tspan>
					<tspan x="300" dy="99">assault carriers</tspan>
					<tspan x="300" dy="99">(wheeled)</tspan>
				</text>
			</switch>
		</g>
</svg>
