<?xml version="1.0" encoding="UTF-8"?>
<svg xmlns="http://www.w3.org/2000/svg" width="600" height="400" viewBox="0 0 600 400">
<g transform="translate(200,200)">
			<path d="M 5,5 H 595 V 395 H 5 Z" style="fill:#ffffff;stroke:none"/>
			<path d="M 5,5 H 595 V 395 H 5 Z" style="fill:none;stroke:#0000ff;stroke-width:12;stroke-linejoin:miter;stroke-miterlimit:4"/>
			<switch>
				<text systemLanguage="en" style="font-size:100px;text-align:center;text-anchor:middle" x="300" y="500">
					<tspan x="300" dy="0">unspecified</tspan>
					<tspan x="300" dy="99">- or -</tspan>
					<tspan x="300" dy="99">combined arms</tspan>
				</text>
				<text systemLanguage="fr" style="font-size:100px;text-align:center;text-anchor:middle" x="300" y="500">
					<tspan x="300" dy="0">non spécifié</tspan>
					<tspan x="300" dy="99">- ou -</tspan>
					<tspan x="300" dy="99">interarmes</tspan>
				</text>
				<text systemLanguage="ja" style="font-size:100px;text-align:center;text-anchor:middle;font-family:TakaoGothic" x="300" y="500">
					<tspan x="300" dy="0">不詳</tspan>
					<tspan x="300" dy="99">または</tspan>
					<tspan x="300" dy="99">諸兵科連合</tspan>
				</text>
				<text style="font-size:100px;text-align:center;text-anchor:middle" x="300" y="500">
					<tspan x="300" dy="0">unspecified</tspan>
					<tspan x="300" dy="99">- or -</tspan>
					<tspan x="300" dy="99">combined arms</tspan>
				</text>
			</switch>
		</g>
<g transform="translate(1100,200)">
			<path d="M 5,5 H 595 V 395 H 5 Z" style="fill:#ffffff;stroke:none"/>
			<text style="font-size:175px;text-align:center;text-anchor:middle;fill:#000000;stroke:none" y="263" x="300">JTF</text>
			<path d="M 5,5 H 595 V 395 H 5 Z" style="fill:none;stroke:#0000ff;stroke-width:12;stroke-linejoin:miter;stroke-miterlimit:4"/>
			<switch>
				<text systemLanguage="en" style="font-size:100px;text-align:center;text-anchor:middle" x="300" y="500">
					<tspan x="300" dy="0">joint</tspan>
					<tspan x="300" dy="99">task force</tspan>
				</text>
				<text systemLanguage="fr" style="font-size:100px;text-align:center;text-anchor:middle" x="300" y="500">
					<tspan x="300" dy="0">force</tspan>
					<tspan x="300" dy="99">opérationnelle</tspan>
					<tspan x="300" dy="99">interarmées</tspan>
				</text>
				<text systemLanguage="ja" style="font-size:100px;text-align:center;text-anchor:middle;font-family:TakaoGothic" x="300" y="500">
					<tspan x="300" dy="0">統合任務部隊</tspan>
				</text>
				<text style="font-size:100px;text-align:center;text-anchor:middle" x="300" y="500">
					<tspan x="300" dy="0">joint</tspan>
					<tspan x="300" dy="99">task force</tspan>
				</text>
			</switch>
		</g>
<g transform="translate(2000,200)">
			<path d="M 5,5 H 595 V 395 H 5 Z" style="fill:#ffffff;stroke:none"/>
			<text style="font-size:175px;text-align:center;text-anchor:middle;fill:#000000;stroke:none" y="263" x="300">MTF</text>
			<path d="M 5,5 H 595 V 395 H 5 Z" style="fill:none;stroke:#0000ff;stroke-width:12;stroke-linejoin:miter;stroke-miterlimit:4"/>
			<switch>
				<text systemLanguage="en" style="font-size:100px;text-align:center;text-anchor:middle" x="300" y="500">
					<tspan x="300" dy="0">maritime</tspan>
					<tspan x="300" dy="99">task force</tspan>
				</text>
				<text systemLanguage="fr" style="font-size:100px;text-align:center;text-anchor:middle" x="300" y="500">
					<tspan x="300" dy="0">force</tspan>
					<tspan x="300" dy="99">opérationnelle</tspan>
					<tspan x="300" dy="99">maritime</tspan>
				</text>
				<text systemLanguage="ja" style="font-size:100px;text-align:center;text-anchor:middle;font-family:TakaoGothic" x="300" y="500">
					<tspan x="300" dy="0">海上任務部隊</tspan>
				</text>
				<text style="font-size:100px;text-align:center;text-anchor:middle" x="300" y="500">
					<tspan x="300" dy="0">maritime</tspan>
					<tspan x="300" dy="99">task force</tspan>
				</text>
			</switch>
		</g>
<g transform="translate(2900,200)">
			<path d="M 5,5 H 595 V 395 H 5 Z" style="fill:#ffffff;stroke:none"/>
			<text style="font-size:175px;text-align:center;text-anchor:middle;fill:#000000;stroke:none" y="263" x="300">LTF</text>
			<path d="M 5,5 H 595 V 395 H 5 Z" style="fill:none;stroke:#0000ff;stroke-width:12;stroke-linejoin:miter;stroke-miterlimit:4"/>
			<switch>
				<text systemLanguage="en" style="font-size:100px;text-align:center;text-anchor:middle" x="300" y="500">
					<tspan x="300" dy="0">land</tspan>
					<tspan x="300" dy="99">task force</tspan>
				</text>
				<text systemLanguage="fr" style="font-size:100px;text-align:center;text-anchor:middle" x="300" y="500">
					<tspan x="300" dy="0">force</tspan>
					<tspan x="300" dy="99">opérationnelle</tspan>
					<tspan x="300" dy="99">terrestre</tspan>
				</text>
				<text systemLanguage="ja" style="font-size:100px;text-align:center;text-anchor:middle;font-family:TakaoGothic" x="300" y="500">
					<tspan x="300" dy="0">陸上任務部隊</tspan>
				</text>
				<text style="font-size:100px;text-align:center;text-anchor:middle" x="300" y="500">
					<tspan x="300" dy="0">land</tspan>
					<tspan x="300" dy="99">task force</tspan>
				</text>
			</switch>
		</g>
<g transform="translate(3800,200)">
			<path d="M 5,5 H 595 V 395 H 5 Z" style="fill:#ffffff;stroke:none"/>
			<text style="font-size:175px;text-align:center;text-anchor:middle;fill:#000000;stroke:none" y="263" x="300">ATF</text>
			<path d="M 5,5 H 595 V 395 H 5 Z" style="fill:none;stroke:#0000ff;stroke-width:12;stroke-linejoin:miter;stroke-miterlimit:4"/>
			<switch>
				<text systemLanguage="en" style="font-size:100px;text-align:center;text-anchor:middle" x="300" y="500">
					<tspan x="300" dy="0">air</tspan>
					<tspan x="300" dy="99">task force</tspan>
				</text>
				<text systemLanguage="fr" style="font-size:100px;text-align:center;text-anchor:middle" x="300" y="500">
					<tspan x="300" dy="0">force</tspan>
					<tspan x="300" dy="99">opérationnelle</tspan>
					<tspan x="300" dy="99">aérienne</tspan>
				</text>
				<text systemLanguage="ja" style="font-size:100px;text-align:center;text-anchor:middle;font-family:TakaoGothic" x="300" y="500">
					<tspan x="300" dy="0">航空任務部隊</tspan>
				</text>
				<text style="font-size:100px;text-align:center;text-anchor:middle" x="300" y="500">
					<tspan x="300" dy="0">air</tspan>
					<tspan x="300" dy="99">task force</tspan>
				</text>
			</switch>
		</g>
<g transform="translate(4700,200)">
			<path d="M 5,5 H 595 V 395 H 5 Z" style="fill:#ffffff;stroke:none"/>
			<path d="m 176,112 248,176 m 0,-176 -248,176" style="fill:none;stroke:#000000;stroke-width:10;stroke-linecap:butt"/>
			<path style="fill:none;stroke:#000000;stroke-width:10" d="m 215,107.5 a 92.5,92.5 0 1 0 0,185 h 170 a 92.5,92.5 0 1 0 0,-185 z"/>
			<path d="M 5,5 H 595 V 395 H 5 Z" style="fill:none;stroke:#0000ff;stroke-width:12;stroke-linejoin:miter;stroke-miterlimit:4"/>
			<switch>
				<text systemLanguage="en" style="font-size:100px;text-align:center;text-anchor:middle" x="300" y="500">
					<tspan x="300" dy="0">combined arms</tspan>
					<tspan x="300" dy="99">mechanized force</tspan>
				</text>
				<text systemLanguage="fr" style="font-size:100px;text-align:center;text-anchor:middle" x="300" y="500">
					<tspan x="300" dy="0">force mécanisée</tspan>
					<tspan x="300" dy="99">interarmes</tspan>
				</text>
				<text systemLanguage="ja" style="font-size:100px;text-align:center;text-anchor:middle;font-family:TakaoGothic" x="300" y="500">
					<tspan x="300" dy="0">諸兵科連合</tspan>
					<tspan x="300" dy="99">機械化部隊</tspan>
				</text>
				<text style="font-size:100px;text-align:center;text-anchor:middle" x="300" y="500">
					<tspan x="300" dy="0">combined arms</tspan>
					<tspan x="300" dy="99">mechanized force</tspan>
				</text>
			</switch>
		</g>
<g transform="translate(5600,200)">
			<path d="M 5,5 H 595 V 395 H 5 Z" style="fill:#ffffff;stroke:none"/>
			<path d="m 94,219 c 0,0 61,-57 123,-55 70,2 83,73 83,73 0,0 11,-70 83,-73 72,-2 123,55 123,55" style="fill:none;stroke:#000000;stroke-width:10;stroke-linecap:round;stroke-linejoin:miter;stroke-miterlimit:5"/>
			<path d="M 5,5 H 595 V 395 H 5 Z" style="fill:none;stroke:#0000ff;stroke-width:12;stroke-linejoin:miter;stroke-miterlimit:4"/>
			<switch>
				<text systemLanguage="en" style="font-size:100px;text-align:center;text-anchor:middle" x="300" y="500">
					<tspan x="300" dy="0">combined arms</tspan>
					<tspan x="300" dy="99">airborne force</tspan>
				</text>
				<text systemLanguage="fr" style="font-size:100px;text-align:center;text-anchor:middle" x="300" y="500">
					<tspan x="300" dy="0">force aéroportée</tspan>
					<tspan x="300" dy="99">interarmes</tspan>
				</text>
				<text systemLanguage="ja" style="font-size:100px;text-align:center;text-anchor:middle;font-family:TakaoGothic" x="300" y="500">
					<tspan x="300" dy="0">諸兵科連合</tspan>
					<tspan x="300" dy="99">空挺部隊</tspan>
				</text>
				<text style="font-size:100px;text-align:center;text-anchor:middle" x="300" y="500">
					<tspan x="300" dy="0">combined arms</tspan>
					<tspan x="300" dy="99">airborne force</tspan>
				</text>
			</switch>
		</g>
<g transform="translate(6500,200)">
			<path d="M 5,5 H 595 V 395 H 5 Z" style="fill:#ffffff;stroke:none"/>
			<path d="m 5,304 h 241 l 54,64 54,-64 h 241" style="fill:none;stroke:#000000;stroke-width:10;stroke-linecap:butt;stroke-linejoin:miter;stroke-miterlimit:4"/>
			<path d="m 5,5 590,390 m 0,-390 -590,390" style="fill:none;stroke:#000000;stroke-width:10;stroke-linecap:butt"/>
			<path d="M 5,5 H 595 V 395 H 5 Z" style="fill:none;stroke:#0000ff;stroke-width:12;stroke-linejoin:miter;stroke-miterlimit:4"/>
			<switch>
				<text systemLanguage="en" style="font-size:100px;text-align:center;text-anchor:middle" x="300" y="500">
					<tspan x="300" dy="0">air assault</tspan>
					<tspan x="300" dy="99">force</tspan>
				</text>
				<text systemLanguage="fr" style="font-size:100px;text-align:center;text-anchor:middle" x="300" y="500">
					<tspan x="300" dy="0">force</tspan>
					<tspan x="300" dy="99">d'assaut aérien</tspan>
				</text>
				<text systemLanguage="ja" style="font-size:100px;text-align:center;text-anchor:middle;font-family:TakaoGothic" x="300" y="500">
					<tspan x="300" dy="0">空中強襲部隊</tspan>
				</text>
				<text style="font-size:100px;text-align:center;text-anchor:middle" x="300" y="500">
					<tspan x="300" dy="0">air assault</tspan>
					<tspan x="300" dy="99">force</tspan>
				</text>
			</switch>
		</g>
<g transform="translate(7400,200)">
			<path d="M 5,5 H 595 V 395 H 5 Z" style="fill:#ffffff;stroke:none"/>
			<path d="m 5,5 590,390 m 0,-390 -590,390" style="fill:none;stroke:#000000;stroke-width:10;stroke-linecap:butt"/>
			<path d="m 4,380 c 36,0 38,-62 74,-62 36,0 38,62 74,62 36,0 38,-62 74,-62 36,0 38,62 74,62 36,0 38,-62 74,-62 36,0 38,62 74,62 36,0 38,-62 74,-62 36,0 38,62 74,62" style="fill:none;stroke:#000000;stroke-width:10;stroke-linecap:butt"/>
			<path d="m 394,144 c 34,-20 81,25 81,56 0,31 -47,77 -81,56 L 206,144 c -34,-20 -81,25 -81,56 0,31 47,77 81,56 z" style="fill:#000000;stroke:#000000;stroke-width:10"/>
			<path d="M 5,5 H 595 V 395 H 5 Z" style="fill:none;stroke:#0000ff;stroke-width:12;stroke-linejoin:miter;stroke-miterlimit:4"/>
			<switch>
				<text systemLanguage="en" style="font-size:100px;text-align:center;text-anchor:middle" x="300" y="500">
					<tspan x="300" dy="0">marine</tspan>
					<tspan x="300" dy="99">air ground</tspan>
					<tspan x="300" dy="99">task force</tspan>
				</text>
				<text systemLanguage="fr" style="font-size:100px;text-align:center;text-anchor:middle" x="300" y="500">
					<tspan x="300" dy="0">force tactique</tspan>
					<tspan x="300" dy="99">terrestre</tspan>
					<tspan x="300" dy="99">et aérienne</tspan>
					<tspan x="300" dy="99">des marines</tspan>
				</text>
				<text systemLanguage="ja" style="font-size:100px;text-align:center;text-anchor:middle;font-family:TakaoGothic" x="300" y="500">
					<tspan x="300" dy="0">海兵</tspan>
					<tspan x="300" dy="99">空地任務部隊</tspan>
				</text>
				<text style="font-size:100px;text-align:center;text-anchor:middle" x="300" y="500">
					<tspan x="300" dy="0">marine</tspan>
					<tspan x="300" dy="99">air ground</tspan>
					<tspan x="300" dy="99">task force</tspan>
				</text>
			</switch>
		</g>
<g transform="translate(8300,200)">
			<path d="M 5,5 H 595 V 395 H 5 Z" style="fill:#ffffff;stroke:none"/>
			<path d="m 155,300 v -140 l 60,-60 m 170,0  l 60,60 v 140" style="fill:none;stroke:#000000;stroke-width:10;stroke-linecap:butt;stroke-linejoin:miter;stroke-miterlimit:4"/>
			<path d="m 240.75,165.5 v -35.25 h -36 V 165.5 L 300,269.75 395.25,165.5 Z" style="fill:#000000;stroke:none"/>
			<path d="M 5,5 H 595 V 395 H 5 Z" style="fill:none;stroke:#0000ff;stroke-width:12;stroke-linejoin:miter;stroke-miterlimit:4"/>
			<switch>
				<text systemLanguage="en" style="font-size:100px;text-align:center;text-anchor:middle" x="300" y="500">
					<tspan x="300" dy="0">carrier</tspan>
					<tspan x="300" dy="99">task force</tspan>
				</text>
				<text systemLanguage="fr" style="font-size:100px;text-align:center;text-anchor:middle" x="300" y="500">
					<tspan x="300" dy="0">force aéronavale</tspan>
					<tspan x="300" dy="99">de projection</tspan>
					<tspan x="300" dy="99">de puissance</tspan>
				</text>
				<text systemLanguage="ja" style="font-size:100px;text-align:center;text-anchor:middle;font-family:TakaoGothic" x="300" y="500">
					<tspan x="300" dy="0">輸送任務部隊</tspan>
				</text>
				<text style="font-size:100px;text-align:center;text-anchor:middle" x="300" y="500">
					<tspan x="300" dy="0">carrier</tspan>
					<tspan x="300" dy="99">task force</tspan>
				</text>
			</switch>
		</g>
<g transform="translate(9200,200)">
			<path d="M 5,5 H 595 V 395 H 5 Z" style="fill:#ffffff;stroke:none"/>
			<path d="m 155,300 v -140 l 60,-60 m 170,0  l 60,60 v 140" style="fill:none;stroke:#000000;stroke-width:10;stroke-linecap:butt;stroke-linejoin:miter;stroke-miterlimit:4"/>
			<path d="m 270.28383,125.75 v 45 h -67.5 l 95.25,103.5 h 103.5 v -12 h -92.25 l 84,-91.5 h -67.5 v -45 z" style="fill:#000000;stroke:#000000;stroke-width:6.75;stroke-linejoin:miter;stroke-miterlimit:4"/>
			<path d="M 5,5 H 595 V 395 H 5 Z" style="fill:none;stroke:#0000ff;stroke-width:12;stroke-linejoin:miter;stroke-miterlimit:4"/>
			<switch>
				<text systemLanguage="en" style="font-size:100px;text-align:center;text-anchor:middle" x="300" y="500">
					<tspan x="300" dy="0">amphibious</tspan>
					<tspan x="300" dy="99">task force</tspan>
				</text>
				<text systemLanguage="fr" style="font-size:100px;text-align:center;text-anchor:middle" x="300" y="500">
					<tspan x="300" dy="0">force</tspan>
					<tspan x="300" dy="99">opérationnelle</tspan>
					<tspan x="300" dy="99">amphibie</tspan>
				</text>
				<text systemLanguage="ja" style="font-size:100px;text-align:center;text-anchor:middle;font-family:TakaoGothic" x="300" y="500">
					<tspan x="300" dy="0">水陸両用</tspan>
					<tspan x="300" dy="99">任務部隊</tspan>
				</text>
				<text style="font-size:100px;text-align:center;text-anchor:middle" x="300" y="500">
					<tspan x="300" dy="0">amphibious</tspan>
					<tspan x="300" dy="99">task force</tspan>
				</text>
			</switch>
		</g>
</svg>
