<?xml version="1.0" encoding="UTF-8"?>
<svg xmlns="http://www.w3.org/2000/svg" width="600" height="400" viewBox="0 0 600 400">
<path d="M 5,5 H 595 V 395 H 5 Z" style="fill:#ffffff;stroke:none"/>
<g style="fill:#000000;stroke:none" transform="matrix(1.1057003,0,0,1.1057003,-31.70917,-21.177078)">
				<path d="m 301.5,80.2 c -12,0 -23,10 -22,22 0,12 10,21 22,21 12,0 22,-9 22,-21 0,-12 -10,-22 -22,-22 z m -1,11 c 6,0 11,5 11,10 0,6 -5,11 -11,11 -6,0 -10,-5 -10,-11 0,-5 4,-10 10,-10 z"/>
				<path d="m 293.037,119.379 v 18.168 l -21.881,-0.306 c -17.203,-0.24 -22.227,-0.018 -23.5,1.038 -2.036,1.689 -2.356,13.078 -0.369,13.135 l 44.75,-0.104 c 0.41617,32.99638 -0.75423,68.11533 -1.044,98.316 -0.09,11.96 -0.545,23.436 -1.011,25.5 -1.754,7.78 -6.661,8.837 -21.785,4.691 -15.729,-4.312 -35.264,-13.896 -38.552,-18.913 -2.614,-3.99 -3.022,-7.41 -1.133,-9.498 0.942,-1.041 2.342,-1.65 3.112,-1.355 0.851,0.326 1.746,-0.386 2.284,-1.817 1.893,-5.04 -4.426,-12.489 -16.872,-19.89 -3.025,-1.799 -7.975,-5.662 -11,-8.584 -3.174,-3.066 -5.973,-5.012 -6.619,-4.598 -2.009,1.287 -6.12,10.584 -7.383,16.697 -2.539,12.288 0.683,30.421 6.668,37.535 3.16,3.756 4.923,3.788 5.659,0.105 1.298,-6.49 9.375,-4.617 18.174,4.211 6.964,6.988 20.225,17.118 26,19.862 2.2,1.045 5.35,2.744 7,3.776 1.65,1.031 6.6,3.107 11,4.611 9.218,3.153 20.012,8.735 24.287,12.56 1.624,1.452 4.076,3.378 5.45,4.277 2.403,1.575 2.562,1.538 4.194,-0.954 3.399,-5.188 9.264,-9.729 18.146,-14.049 4.992,-2.43 9.828,-4.416 10.744,-4.416 1.949,0 18.395,-7.275 28.301,-12.521 7.764,-4.11 11.26,-6.587 19.934,-14.121 9.791,-8.505 14.745,-9.466 19.884,-3.856 l 3.208,3.503 2.061,-2.253 c 3.727,-4.075 5.098,-8.172 5.818,-17.383 0.551,-7.043 0.316,-10.867 -1.037,-16.98 -2.142,-9.658 -5.73,-17.913 -8.414,-19.35 -1.695,-0.906 -2.271,-0.645 -3.72,1.693 -2.519,4.065 -6.036,7.262 -12.812,11.642 -8.113,5.244 -13.01,10.649 -14.516,16.026 -1.453,5.193 -0.791,7.079 1.968,5.603 3.01,-1.611 4.971,-1.172 6.13,1.374 1.633,3.582 -0.819,6.465 -10.299,12.104 -16.191,9.631 -37.9,17.52 -48.216,17.52 -4.868,0 -9.438,-1.883 -10.171,-4.189 -0.353,-1.112 -0.371,-14.237 -0.04,-29.166 l 2.114,-96.667 c 0.186,-0.299 10.497,-0.45 22.916,-0.334 25.764,0.24 24.408,0.724 24.195,-8.643 l -0.125,-5.5 c -15.387,-1.079 -31.138,0.942 -46.46,-1.126 L 309.5,119.666 Z"/>
			</g>
<path d="M 5,5 H 595 V 395 H 5 Z" style="fill:none;stroke:#0000ff;stroke-width:12;stroke-linejoin:miter;stroke-miterlimit:4"/>
</svg>
