<?xml version="1.0" encoding="UTF-8"?>
<svg xmlns="http://www.w3.org/2000/svg" width="600" height="400" viewBox="0 0 600 400">
<path d="M 5,5 H 595 V 395 H 5 Z" style="fill:#ffffff;stroke:none"/>
<path d="m 385,200 a 85,85 0 1 1 -170,0 85,85 0 1 1 170,0 z" style="fill:#000000;stroke:none"/>
<path d="m 185,340 a 31.5,31.5 0 1 1 63,0 31.5,31.5 0 1 1 -63,0 z m 83.5,0 a 31.5,31.5 0 1 1 63,0 31.5,31.5 0 1 1 -63,0 z m 83.5,0 a 31.5,31.5 0 1 1 63,0 31.5,31.5 0 1 1 -63,0 z" style="fill:none;stroke:#000000;stroke-width:10"/>
<path d="M 5,5 H 595 V 395 H 5 Z" style="fill:none;stroke:#0000ff;stroke-width:12;stroke-linejoin:miter;stroke-miterlimit:4"/>
</svg>
