<?xml version="1.0" encoding="UTF-8"?>
<svg xmlns="http://www.w3.org/2000/svg" width="600" height="400" viewBox="0 0 600 400">
<g transform="translate(200,200)">
			<path d="M 5,5 H 595 V 395 H 5 Z" style="fill:#ffffff;stroke:none"/>
			<path d="M 595,5 313,200 595,395" style="fill:none;stroke:#000000;stroke-width:10;stroke-linecap:butt;stroke-linejoin:miter;stroke-miterlimit:4"/>
			<path d="M 5,5 H 595 V 395 H 5 Z" style="fill:none;stroke:#0000ff;stroke-width:12;stroke-linejoin:miter;stroke-miterlimit:4"/>
			<switch>
				<text systemLanguage="en" style="font-size:100px;text-align:center;text-anchor:middle" x="300" y="500">
					<tspan x="300" dy="0">sustainment</tspan>
				</text>
				<text systemLanguage="fr" style="font-size:100px;text-align:center;text-anchor:middle" x="300" y="500">
					<tspan x="300" dy="0">soutien</tspan>
				</text>
				<text systemLanguage="ja" style="font-size:100px;text-align:center;text-anchor:middle;font-family:TakaoGothic" x="300" y="500">
					<tspan x="300" dy="0">後方支援部隊</tspan>
				</text>
				<text style="font-size:100px;text-align:center;text-anchor:middle" x="300" y="500">
					<tspan x="300" dy="0">sustainment</tspan>
				</text>
			</switch>
		</g>
<g transform="translate(1100,200)">
			<path d="M 5,5 H 595 V 395 H 5 Z" style="fill:#ffffff;stroke:none"/>
			<path d="M 5,5 H 595 V 395 H 5 Z" style="fill:none;stroke:#0000ff;stroke-width:12;stroke-linejoin:miter;stroke-miterlimit:4"/>
			<path d="M 5,304 H 595" style="fill:none;stroke:#000000;stroke-width:10;stroke-linecap:butt"/>
			<switch>
				<text systemLanguage="en" style="font-size:100px;text-align:center;text-anchor:middle" x="300" y="500">
					<tspan x="300" dy="0">supply</tspan>
				</text>
				<text systemLanguage="fr" style="font-size:100px;text-align:center;text-anchor:middle" x="300" y="500">
					<tspan x="300" dy="0">approvisionnement</tspan>
				</text>
				<text systemLanguage="ja" style="font-size:100px;text-align:center;text-anchor:middle;font-family:TakaoGothic" x="300" y="500">
					<tspan x="300" dy="0">兵站部隊</tspan>
				</text>
				<text style="font-size:100px;text-align:center;text-anchor:middle" x="300" y="500">
					<tspan x="300" dy="0">supply</tspan>
				</text>
			</switch>
		</g>
<g transform="translate(2000,200)">
			<path d="M 5,5 H 595 V 395 H 5 Z" style="fill:#ffffff;stroke:none"/>
			<g style="fill:none;stroke:#000000;stroke-width:10;stroke-linecap:butt">
				<path d="m 383,200 a 83,83 0 0 1 -166,0 83,83 0 0 1 166,0 h -166 m 83,83 v -166"/>
				<path d="m 241,141 118,118 m -118,0 118,-118"/>
			</g>
			<path d="M 5,5 H 595 V 395 H 5 Z" style="fill:none;stroke:#0000ff;stroke-width:12;stroke-linejoin:miter;stroke-miterlimit:4"/>
			<switch>
				<text systemLanguage="en" style="font-size:100px;text-align:center;text-anchor:middle" x="300" y="500">
					<tspan x="300" dy="0">transportation</tspan>
				</text>
				<text systemLanguage="fr" style="font-size:100px;text-align:center;text-anchor:middle" x="300" y="500">
					<tspan x="300" dy="0">transport</tspan>
				</text>
				<text systemLanguage="ja" style="font-size:100px;text-align:center;text-anchor:middle;font-family:TakaoGothic" x="300" y="500">
					<tspan x="300" dy="0">輸送部隊</tspan>
				</text>
				<text style="font-size:100px;text-align:center;text-anchor:middle" x="300" y="500">
					<tspan x="300" dy="0">transportation</tspan>
				</text>
			</switch>
		</g>
<g transform="translate(2900,200)">
			<path d="M 5,5 H 595 V 395 H 5 Z" style="fill:#ffffff;stroke:none"/>
			<g style="fill:none;stroke:#000000;stroke-width:10;stroke-linecap:butt">
				<path d="m 383,200 a 83,83 0 0 1 -166,0 83,83 0 0 1 166,0 h -166 m 83,83 v -166"/>
				<path d="m 241,141 118,118 m -118,0 118,-118"/>
			</g>
			<path d="M 5,304 H 595" style="fill:none;stroke:#000000;stroke-width:10;stroke-linecap:butt"/>
			<path d="M 5,5 H 595 V 395 H 5 Z" style="fill:none;stroke:#0000ff;stroke-width:12;stroke-linejoin:miter;stroke-miterlimit:4"/>
			<switch>
				<text systemLanguage="en" style="font-size:100px;text-align:center;text-anchor:middle" x="300" y="500">
					<tspan x="300" dy="0">supply</tspan>
					<tspan x="300" dy="99">&amp;</tspan>
					<tspan x="300" dy="99">transportation</tspan>
				</text>
				<text systemLanguage="fr" style="font-size:100px;text-align:center;text-anchor:middle" x="300" y="500">
					<tspan x="300" dy="0">approvisionnement</tspan>
					<tspan x="300" dy="99">et</tspan>
					<tspan x="300" dy="99">transport</tspan>
				</text>
				<text systemLanguage="ja" style="font-size:100px;text-align:center;text-anchor:middle;font-family:TakaoGothic" x="300" y="500">
					<tspan x="300" dy="0">兵站及び</tspan>
					<tspan x="300" dy="99">輸送部隊</tspan>
				</text>
				<text style="font-size:100px;text-align:center;text-anchor:middle" x="300" y="500">
					<tspan x="300" dy="0">supply</tspan>
					<tspan x="300" dy="99">&amp;</tspan>
					<tspan x="300" dy="99">transportation</tspan>
				</text>
			</switch>
		</g>
<g transform="translate(3800,200)">
			<path d="M 5,5 H 595 V 395 H 5 Z" style="fill:#ffffff;stroke:none"/>
			<g style="fill:none;stroke:#000000;stroke-width:10;stroke-linecap:butt;stroke-linejoin:miter;stroke-miterlimit:4;">
				<path d="M 260.77931,288.49638 V 164.98639 c 0,-22.10749 25.51957,-53.48277 39.22069,-53.48277 13.70111,0 39.22069,31.37528 39.22069,53.48277 v 123.50999 z"/>
				<path d="M 229.43248,288.49638 H 370.56752"/>
			</g>
			<path d="M 5,5 H 595 V 395 H 5 Z" style="fill:none;stroke:#0000ff;stroke-width:12;stroke-linejoin:miter;stroke-miterlimit:4"/>
			<switch>
				<text systemLanguage="en" style="font-size:100px;text-align:center;text-anchor:middle" x="300" y="500">
					<tspan x="300" dy="0">ammunition</tspan>
				</text>
				<text systemLanguage="fr" style="font-size:100px;text-align:center;text-anchor:middle" x="300" y="500">
					<tspan x="300" dy="0">munitions</tspan>
				</text>
				<text systemLanguage="ja" style="font-size:100px;text-align:center;text-anchor:middle;font-family:TakaoGothic" x="300" y="500">
					<tspan x="300" dy="0">弾薬</tspan>
				</text>
				<text style="font-size:100px;text-align:center;text-anchor:middle" x="300" y="500">
					<tspan x="300" dy="0">ammunition</tspan>
				</text>
			</switch>
		</g>
<g transform="translate(4700,200)">
			<path d="M 5,5 H 595 V 395 H 5 Z" style="fill:#ffffff;stroke:none"/>
			<path d="m 300,199 l 50,-87 h-100 l50,87 z v 94" style="fill:none;stroke:#000000;stroke-width:10;stroke-linecap:butt;stroke-linejoin:miter;stroke-miterlimit:4"/>
			<path d="M 5,5 H 595 V 395 H 5 Z" style="fill:none;stroke:#0000ff;stroke-width:12;stroke-linejoin:miter;stroke-miterlimit:4"/>
			<switch>
				<text systemLanguage="en" style="font-size:100px;text-align:center;text-anchor:middle" x="300" y="500">
					<tspan x="300" dy="0">fuels</tspan>
					<tspan x="300" dy="99">&amp;</tspan>
					<tspan x="300" dy="99">lubricants</tspan>
				</text>
				<text systemLanguage="fr" style="font-size:100px;text-align:center;text-anchor:middle" x="300" y="500">
					<tspan x="300" dy="0">carburants</tspan>
					<tspan x="300" dy="99">et</tspan>
					<tspan x="300" dy="99">lubrifiants</tspan>
				</text>
				<text systemLanguage="ja" style="font-size:100px;text-align:center;text-anchor:middle;font-family:TakaoGothic" x="300" y="500">
					<tspan x="300" dy="0">燃料及び</tspan>
					<tspan x="300" dy="99">潤滑剤</tspan>
				</text>
				<text style="font-size:100px;text-align:center;text-anchor:middle" x="300" y="500">
					<tspan x="300" dy="0">fuels</tspan>
					<tspan x="300" dy="99">&amp;</tspan>
					<tspan x="300" dy="99">lubricants</tspan>
				</text>
			</switch>
		</g>
<g transform="translate(5600,200)">
			<path d="M 5,5 H 595 V 395 H 5 Z" style="fill:#ffffff;stroke:none"/>
			<path d="m 240,140 a 84.852813,84.852813 0 0 1 120,0 l 30,-30 -30,30 a 84.852813,84.852813 0 0 1 0,120 l 30,30 -30,-30 a 84.852813,84.852813 0 0 1 -120,0 l -30,30 30,-30 a 84.852813,84.852813 0 0 1 0,-120 l -30,-30" style="fill:none;stroke:#000000;stroke-width:10;stroke-linejoin:miter;stroke-miterlimit:4"/>
			<path d="M 5,5 H 595 V 395 H 5 Z" style="fill:none;stroke:#0000ff;stroke-width:12;stroke-linejoin:miter;stroke-miterlimit:4"/>
			<switch>
				<text systemLanguage="en" style="font-size:100px;text-align:center;text-anchor:middle" x="300" y="500">
					<tspan x="300" dy="0">ordnance</tspan>
				</text>
				<text systemLanguage="fr" style="font-size:100px;text-align:center;text-anchor:middle" x="300" y="500">
					<tspan x="300" dy="0">service</tspan>
					<tspan x="300" dy="99">du matériel</tspan>
				</text>
				<text systemLanguage="ja" style="font-size:100px;text-align:center;text-anchor:middle;font-family:TakaoGothic" x="300" y="500">
					<tspan x="300" dy="0">武器補給所</tspan>
				</text>
				<text style="font-size:100px;text-align:center;text-anchor:middle" x="300" y="500">
					<tspan x="300" dy="0">ordnance</tspan>
				</text>
			</switch>
		</g>
<g transform="translate(6500,200)">
			<path d="M 5,5 H 595 V 395 H 5 Z" style="fill:#ffffff;stroke:none"/>
			<path d="m 300,187 70,-70 a 98.994949,98.994949 0 1 0 0,140 z" style="fill:none;stroke:#000000;stroke-width:10;stroke-linejoin:miter;stroke-miterlimit:4"/>
			<path d="M 5,5 H 595 V 395 H 5 Z" style="fill:none;stroke:#0000ff;stroke-width:12;stroke-linejoin:miter;stroke-miterlimit:4"/>
			<switch>
				<text systemLanguage="en" style="font-size:100px;text-align:center;text-anchor:middle" x="300" y="500">
					<tspan x="300" dy="0">food services</tspan>
					<tspan x="300" dy="99">&amp;</tspan>
					<tspan x="300" dy="99">rations</tspan>
				</text>
				<text systemLanguage="fr" style="font-size:100px;text-align:center;text-anchor:middle" x="300" y="500">
					<tspan x="300" dy="0">services</tspan>
					<tspan x="300" dy="99">alimentaires</tspan>
					<tspan x="300" dy="99">et rations</tspan>
				</text>
				<text systemLanguage="ja" style="font-size:100px;text-align:center;text-anchor:middle;font-family:TakaoGothic" x="300" y="500">
					<tspan x="300" dy="0">給食及び糧食</tspan>
					<tspan x="300" dy="99">部隊</tspan>
				</text>
				<text style="font-size:100px;text-align:center;text-anchor:middle" x="300" y="500">
					<tspan x="300" dy="0">food services</tspan>
					<tspan x="300" dy="99">&amp;</tspan>
					<tspan x="300" dy="99">rations</tspan>
				</text>
			</switch>
		</g>
<g transform="translate(7400,200)">
			<path d="M 5,5 H 595 V 395 H 5 Z" style="fill:#ffffff;stroke:none"/>
			<path d="m 138,200 h 324 m 60,-60 a 60,60 1 1 0 0,120 m -444,0 a 60,60 1 1 0 0,-120 " style="fill:none;stroke:#000000;stroke-width:10;stroke-linecap:round"/>
			<path d="M 5,5 H 595 V 395 H 5 Z" style="fill:none;stroke:#0000ff;stroke-width:12;stroke-linejoin:miter;stroke-miterlimit:4"/>
			<switch>
				<text systemLanguage="en" style="font-size:100px;text-align:center;text-anchor:middle" x="300" y="500">
					<tspan x="300" dy="0">maintenance</tspan>
				</text>
				<text systemLanguage="fr" style="font-size:100px;text-align:center;text-anchor:middle" x="300" y="500">
					<tspan x="300" dy="0">maintenance</tspan>
				</text>
				<text systemLanguage="ja" style="font-size:100px;text-align:center;text-anchor:middle;font-family:TakaoGothic" x="300" y="500">
					<tspan x="300" dy="0">整備部隊</tspan>
				</text>
				<text style="font-size:100px;text-align:center;text-anchor:middle" x="300" y="500">
					<tspan x="300" dy="0">maintenance</tspan>
				</text>
			</switch>
		</g>
<g transform="translate(8300,200)">
			<path d="M 5,5 H 595 V 395 H 5 Z" style="fill:#ffffff;stroke:none"/>
			<g style="fill:#000000;stroke:#000000;stroke-width:2.3;stroke-linecap:round;stroke-linejoin:miter;stroke-miterlimit:4">
				<path d="m 331.2321,293.29708 h -63.74012 l 31.87006,-93.30465 -31.87006,-93.28951 H 331.2321 L 299.36204,200 Z"/>
				<path d="m 350.3,169.9 c 18.1,-10.8 43.2,13.5 43.2,30.1 0,16.6 -25,41 -43.2,30.1 L 249.7,169.9 c -18.1,-10.8 -43.2,13.5 -43.2,30.1 0,16.6 25,41 43.2,30.1 z"/>
			</g>
			<g style="fill:none;stroke:#000000;stroke-width:10;stroke-linecap:round;stroke-linejoin:miter;stroke-miterlimit:4">
				<path d="M 239.57574,55.11873 H 361.43195"/>
				<path d="m 206.89204,86.79476 c 17.49418,0 31.67602,-14.18184 31.67602,-31.67603 0,-17.49418 -14.18184,-31.67602 -31.67602,-31.67602"/>
				<path d="m 393.10797,86.79476 c -17.49419,0 -31.67602,-14.18184 -31.67602,-31.67603 0,-17.49418 14.18183,-31.67602 31.67602,-31.67602"/>
			</g>
			<path d="M 5,5 H 595 V 395 H 5 Z" style="fill:none;stroke:#0000ff;stroke-width:12;stroke-linejoin:miter;stroke-miterlimit:4"/>
			<switch>
				<text systemLanguage="en" style="font-size:100px;text-align:center;text-anchor:middle" x="300" y="500">
					<tspan x="300" dy="0">aircraft</tspan>
					<tspan x="300" dy="99">maintenance</tspan>
				</text>
				<text systemLanguage="fr" style="font-size:100px;text-align:center;text-anchor:middle" x="300" y="500">
					<tspan x="300" dy="0">maintenance</tspan>
					<tspan x="300" dy="99">des aéronefs</tspan>
				</text>
				<text systemLanguage="ja" style="font-size:100px;text-align:center;text-anchor:middle;font-family:TakaoGothic" x="300" y="500">
					<tspan x="300" dy="0">航空整備部隊</tspan>
				</text>
				<text style="font-size:100px;text-align:center;text-anchor:middle" x="300" y="500">
					<tspan x="300" dy="0">aircraft</tspan>
					<tspan x="300" dy="99">maintenance</tspan>
				</text>
			</switch>
		</g>
<g transform="translate(9200,200)">
			<path d="M 5,5 H 595 V 395 H 5 Z" style="fill:#ffffff;stroke:none"/>
			<path d="m 5,200 h 590 m -295,-195 v 390" style="fill:none;stroke:#000000;stroke-width:10;stroke-linecap:butt"/>
			<path d="M 5,5 H 595 V 395 H 5 Z" style="fill:none;stroke:#0000ff;stroke-width:12;stroke-linejoin:miter;stroke-miterlimit:4"/>
			<switch>
				<text systemLanguage="en" style="font-size:100px;text-align:center;text-anchor:middle" x="300" y="500">
					<tspan x="300" dy="0">medical</tspan>
				</text>
				<text systemLanguage="fr" style="font-size:100px;text-align:center;text-anchor:middle" x="300" y="500">
					<tspan x="300" dy="0">médical</tspan>
				</text>
				<text systemLanguage="ja" style="font-size:100px;text-align:center;text-anchor:middle;font-family:TakaoGothic" x="300" y="500">
					<tspan x="300" dy="0">衛生部隊</tspan>
				</text>
				<text style="font-size:100px;text-align:center;text-anchor:middle" x="300" y="500">
					<tspan x="300" dy="0">medical</tspan>
				</text>
			</switch>
		</g>
</svg>
