<?xml version="1.0" encoding="UTF-8"?>
<svg xmlns="http://www.w3.org/2000/svg" width="600" height="400" viewBox="0 0 600 400">
<path d="M 5,5 H 595 V 395 H 5 Z" style="fill:#ffffff;stroke:none"/>
<g style="fill:none;stroke:#000000;stroke-width:10">
				<path d="m 215,107.5 a 92.5,92.5 0 1 0 0,185 h 170 a 92.5,92.5 0 1 0 0,-185 z"/>
				<path d="m 185,340 a 31.5,31.5 0 1 1 63,0 31.5,31.5 0 1 1 -63,0 z m 83.5,0 a 31.5,31.5 0 1 1 63,0 31.5,31.5 0 1 1 -63,0 z m 83.5,0 a 31.5,31.5 0 1 1 63,0 31.5,31.5 0 1 1 -63,0 z"/>
			</g>
<path d="M 5,395 300,11 595,395" style="fill:none;stroke:#000000;stroke-width:10;stroke-linecap:butt;stroke-linejoin:miter;stroke-miterlimit:4"/>
<path d="M 95,5 V 395" style="fill:none;stroke:#000000;stroke-width:10;stroke-linecap:butt"/>
<path d="M 5,5 H 595 V 395 H 5 Z" style="fill:none;stroke:#0000ff;stroke-width:12;stroke-linejoin:miter;stroke-miterlimit:4"/>
</svg>
